<?xml version="1.0" encoding="utf-8"?>
<!-- Generator: Adobe Illustrator 19.2.1, SVG Export Plug-In . SVG Version: 6.00 Build 0)  -->
<svg version="1.1" id="Layer_1" xmlns="http://www.w3.org/2000/svg" xmlns:xlink="http://www.w3.org/1999/xlink" x="0px" y="0px"
	 viewBox="0 0 364.7 130.7" style="enable-background:new 0 0 364.7 130.7;" xml:space="preserve">
<style type="text/css">
	.st0{fill:#5F6062;}
	.st1{font-family:'SquareChunks';}
	.st2{font-size:80.9968px;}
	.st3{fill:#FFFFFF;}
</style>
<g>
	<g>
		<text transform="matrix(1 0 0 1 16.2494 105.391)" class="st0 st1 st2">F     FE</text>
	</g>
	<polygon class="st0" points="128.3,107.5 156.6,107.5 156.6,81.3 191.3,30.7 143.2,30.7 143.2,57.8 140.1,57.8 140.1,30.7 
		93.3,30.7 127.8,82.2 	"/>
	
		<rect x="42.9" y="66.8" transform="matrix(1.905415e-011 -1 1 1.905415e-011 -14.9645 120.6691)" class="st3" width="20" height="2"/>
	
		<rect x="53.9" y="56.1" transform="matrix(-1 -4.622048e-011 4.622048e-011 -1 145.2098 114.9253)" class="st0" width="37.5" height="2.7"/>
	
		<rect x="220.8" y="66.7" transform="matrix(1.900886e-011 -1 1 1.900886e-011 163.1188 298.5441)" class="st3" width="20" height="2"/>
	
		<rect x="231.8" y="56" transform="matrix(-1 -4.622048e-011 4.622048e-011 -1 501.1681 114.717)" class="st0" width="37.5" height="2.7"/>
	
		<rect x="299.5" y="66.9" transform="matrix(1.817574e-011 -1 1 1.817574e-011 242.0146 377.8149)" class="st3" width="20.9" height="2"/>
	
		<rect x="310.9" y="55.7" transform="matrix(-1 -4.622048e-011 4.622048e-011 -1 659.3348 114.1753)" class="st0" width="37.5" height="2.7"/>
	
		<rect x="310.9" y="77.1" transform="matrix(-1 -4.617163e-011 4.617163e-011 -1 659.3348 156.9253)" class="st0" width="37.5" height="2.7"/>
</g>
</svg>
