<?xml version="1.0" encoding="utf-8"?>
<!-- Generator: Adobe Illustrator 19.2.1, SVG Export Plug-In . SVG Version: 6.00 Build 0)  -->
<svg version="1.1" id="Layer_1" xmlns="http://www.w3.org/2000/svg" xmlns:xlink="http://www.w3.org/1999/xlink" x="0px" y="0px"
	 viewBox="0 0 364.7 130.7" style="enable-background:new 0 0 364.7 130.7;" xml:space="preserve">
<style type="text/css">
	.st0{fill:#5F6062;}
	.st1{fill:#FFFFFF;}
</style>
<g>
	<g>
		<path class="st0" d="M212.1-349.1v23.7h-39.5v4h39.5v19.8h-39.5v27.7h-35.6v-75.1H212.1z"/>
		<path class="st0" d="M390-349.1v23.7h-39.5v4H390v19.8h-39.5v27.7h-35.6v-75.1H390z"/>
		<path class="st0" d="M429.6-297.7h39.5v23.7H394v-75.1h75.1v23.7h-39.5v4h39.5v19.8h-39.5V-297.7z"/>
	</g>
</g>
<polygon class="st0" points="249,-271.9 277.2,-271.9 277.2,-298 312,-348.6 263.9,-348.6 263.9,-321.5 260.7,-321.5 260.7,-348.6 
	214,-348.6 248.5,-297.1 "/>
<rect x="162.7" y="-313.4" transform="matrix(9.448354e-008 -1 1 9.448354e-008 485.8709 -138.8331)" class="st1" width="21.7" height="2"/>
<rect x="174.5" y="-323.2" transform="matrix(-1 -4.622048e-011 4.622048e-011 -1 386.5431 -643.7414)" class="st0" width="37.5" height="2.7"/>
<rect x="340.7" y="-313.5" transform="matrix(1.754336e-011 -1 1 1.754336e-011 663.9543 39.042)" class="st1" width="21.7" height="2"/>
<rect x="352.5" y="-323.3" transform="matrix(-1 -4.622048e-011 4.622048e-011 -1 742.5015 -643.9497)" class="st0" width="37.5" height="2.7"/>
<rect x="418.6" y="-312.6" transform="matrix(-6.820581e-006 -1 1 -6.820581e-006 742.178 118.9854)" class="st1" width="23.9" height="2"/>
<rect x="431.6" y="-323.6" transform="matrix(-1 -4.624446e-011 4.624446e-011 -1 900.6682 -644.4914)" class="st0" width="37.5" height="2.7"/>
<rect x="431.6" y="-302.2" transform="matrix(-1 -4.617163e-011 4.617163e-011 -1 900.6682 -601.7414)" class="st0" width="37.5" height="2.7"/>
<rect x="-63.4" y="-240.5" class="st1" width="354" height="133.3"/>
<polygon class="st0" points="128.3,103.9 156.5,103.9 156.5,77.8 191.3,27.2 143.2,27.2 143.2,54.3 140.1,54.3 140.1,27.2 
	93.3,27.2 127.8,78.7 "/>
<g>
	<rect x="53.8" y="54.4" class="st0" width="37.5" height="19.8"/>
	<polygon class="st0" points="16.2,26.7 16.2,101.9 51.8,101.9 51.8,74.2 51.8,74.2 51.8,54.4 51.8,54.4 51.8,50.5 91.4,50.5 
		91.4,26.7 	"/>
</g>
<rect x="53.8" y="52.1" transform="matrix(-1 -4.247015e-011 4.247015e-011 -1 145.2002 106.6979)" class="st0" width="37.5" height="2.5"/>
<g>
	<rect x="231.4" y="54.9" class="st0" width="37.5" height="19.8"/>
	<polygon class="st0" points="193.8,27.2 193.8,102.4 229.3,102.4 229.3,74.7 229.4,74.7 229.4,54.9 229.3,54.9 229.3,50.9 
		268.9,50.9 268.9,27.2 	"/>
</g>
<rect x="231.4" y="52.6" transform="matrix(-1 -4.247015e-011 4.247015e-011 -1 500.2548 107.6701)" class="st0" width="37.5" height="2.5"/>
<g>
	<rect x="310.9" y="54.4" class="st0" width="37.5" height="19.8"/>
	<polygon class="st0" points="273.3,26.7 273.3,101.9 348.4,101.9 348.4,78.1 308.9,78.1 308.9,74.2 308.9,74.2 308.9,54.4 
		308.9,54.4 308.9,50.5 348.4,50.5 348.4,26.7 	"/>
</g>
<rect x="310.9" y="52.2" transform="matrix(-1 -4.624446e-011 4.624446e-011 -1 659.2899 107.1231)" class="st0" width="37.5" height="2.7"/>
<rect x="310.9" y="73.6" transform="matrix(-1 -4.617163e-011 4.617163e-011 -1 659.2899 149.8731)" class="st0" width="37.5" height="2.7"/>
</svg>
