<?xml version="1.0" encoding="utf-8"?>
<!-- Generator: Adobe Illustrator 21.0.2, SVG Export Plug-In . SVG Version: 6.00 Build 0)  -->
<svg version="1.1" id="Layer_1" xmlns="http://www.w3.org/2000/svg" xmlns:xlink="http://www.w3.org/1999/xlink" x="0px" y="0px"
	 viewBox="0 0 370 460" style="enable-background:new 0 0 370 460;" xml:space="preserve">
<style type="text/css">
	.st0{fill:#ECAD00;}
	.st1{fill:#FFFFFF;}
	.st2{fill:#5F6062;}
</style>
<g id="XMLID_847_">
	<path id="XMLID_848_" class="st0" d="M5,180c0,44,15.8,84.4,42.1,115.6L185,460l10-230L185,0C85.6,0,5,80.6,5,180z"/>
	<path id="XMLID_849_" class="st0" d="M185,0v460l137.9-164.4C349.2,264.4,365,224,365,180C365,80.6,284.4,0,185,0z"/>
	<path id="XMLID_850_" class="st1" d="M185,100l10,40l-10,40l-40,10l-40-10C105,135.8,140.8,100,185,100z"/>
	<path id="XMLID_851_" class="st1" d="M195,180l-10,80c-44.2,0-80-35.8-80-80H195z"/>
	<path id="XMLID_852_" class="st1" d="M265,180h-80v-80C229.2,100,265,135.8,265,180z"/>
	<path id="XMLID_853_" class="st1" d="M185,180h80c0,44.2-35.8,80-80,80V180z"/>
</g>
<g id="g8FBxK.tif">
	<g>
		<path class="st2" d="M184.2,224.1c-12.7,0-24.8,0-37.2,0c0-26.5,0-52.9,0-79.6c26.5,0,53,0,80,0c0,7.4,0.1,14.8-0.2,22.1
			c0,0.8-2.6,2-4,2.1c-11,0.2-21.9,0.3-32.9,0c-4.5-0.1-5.9,1.2-5.9,5.8C184.4,190.9,184.2,207.2,184.2,224.1z"/>
		<path class="st2" d="M187.7,194c0-7.8,0-14.9,0-22.2c13.2,0,26,0,39.1,0c0,7.5,0,14.7,0,22.2C213.6,194,200.6,194,187.7,194z"/>
	</g>
</g>
</svg>
